<svg width="188" height="41" viewBox="0 0 188 41" fill="none" xmlns="http://www.w3.org/2000/svg">
<path d="M57.7085 12.9609C56.797 12.4295 55.7763 12.2678 54.7619 12.0956C53.3568 11.8583 51.9412 11.7449 50.5151 11.7806C49.5994 11.8037 48.6816 11.7428 47.7659 11.8142C46.3356 11.9255 44.9158 12.0935 43.5296 12.4841C43.1327 12.5955 42.7441 12.7278 42.3808 12.9777C42.2862 12.585 42.1791 12.2111 42.1098 11.831C41.8977 10.6548 41.3516 9.63198 40.6711 8.67005C40.2322 8.04837 39.6882 7.5212 39.1358 7.00454C38.7998 6.6895 38.4827 6.35976 38.2075 5.99221C37.8736 5.54695 37.632 5.05759 37.4997 4.50102C37.5606 4.49261 37.5921 4.53672 37.6236 4.56822C38.3146 5.21721 39.1358 5.58266 40.0768 5.69817C40.4065 5.73808 40.7341 5.79898 41.0429 5.9271C41.6499 6.18123 42.0657 6.84072 42.0363 7.517C41.9334 7.54011 41.9187 7.43719 41.8725 7.39099C41.7633 7.28387 41.6352 7.21247 41.4902 7.16836C41.3453 7.12215 41.2151 7.14526 41.1185 7.26707C41.0198 7.39099 41.0366 7.52541 41.1122 7.65142C41.2193 7.82995 41.3642 7.98116 41.528 8.10718C42.2715 8.67845 43.1095 9.0292 44.0442 9.11951C44.6722 9.17832 45.1972 8.94939 45.6782 8.53984C46.5897 7.76274 46.911 6.10142 46.4007 5.03028C46.2432 4.70054 46.1066 4.3582 45.9743 4.01795C45.7286 3.39417 45.7265 2.75779 45.9638 2.13821C46.1675 1.60684 46.4217 1.09648 46.6863 0.5C46.7115 0.720528 46.7178 0.859146 46.7451 0.995664C46.8648 1.57954 47.2072 2.00799 47.7049 2.31883C47.8898 2.43435 48.0809 2.53726 48.2657 2.65488C48.4715 2.78509 48.648 2.95312 48.774 3.16104C49.0155 3.56219 48.9945 3.96335 48.7446 4.3582C48.6291 4.28889 48.6522 4.15447 48.5976 4.05576C48.4715 3.82473 48.2993 3.74912 48.0557 3.84153C47.8247 3.92764 47.6902 4.10826 47.602 4.32879C47.329 5.03028 47.455 5.67297 47.9654 6.20434C48.314 6.56768 48.6102 6.93523 48.7593 7.42459C48.858 7.75013 49.1037 7.95596 49.4671 8.02317C49.1583 8.18909 48.9588 8.15969 48.6753 7.91606C48.5535 7.81104 48.4505 7.68503 48.3266 7.58631C48.209 7.4939 48.0662 7.41829 47.9213 7.53801C47.7869 7.64722 47.8331 7.79004 47.8877 7.91606C48.0998 8.40542 48.482 8.73516 48.9609 8.92839C49.8178 9.27493 50.6621 9.23503 51.4665 8.74776C51.727 8.59024 51.9265 8.36971 52.0987 8.12398C52.1596 8.03997 52.2037 7.94546 52.2247 7.84465C52.2499 7.72913 52.2646 7.61362 52.1575 7.52961C52.0504 7.44349 51.9433 7.4855 51.8362 7.53801C51.6871 7.61152 51.5925 7.74593 51.4791 7.85515C51.1914 8.13028 50.9898 8.18279 50.6495 8.07358C50.6369 8.01057 50.6873 7.99797 50.7272 7.99167C51.0444 7.93076 51.2397 7.71233 51.3237 7.43089C51.4749 6.92893 51.7879 6.55718 52.1407 6.18543C52.6364 5.66037 52.7519 5.02188 52.4873 4.33509C52.4158 4.15237 52.3108 3.98855 52.1302 3.88774C51.8278 3.71971 51.603 3.79322 51.4686 4.11037C51.435 4.19228 51.4077 4.27629 51.3741 4.3645C51.0486 3.89194 51.0675 3.43618 51.4224 3.00772C51.6619 2.71789 51.9874 2.54566 52.3045 2.36294C52.7792 2.09201 53.132 1.71186 53.2917 1.18049C53.3463 0.995664 53.3652 0.802439 53.4135 0.537805C53.7096 1.2645 54.1087 1.87778 54.2473 2.60237C54.3292 3.04133 54.3019 3.46768 54.157 3.88774C54.0268 4.26579 53.8692 4.63543 53.697 4.99668C53.1761 6.09302 53.4702 7.75644 54.43 8.56294C54.9026 8.95989 55.4213 9.17832 56.0388 9.12161C56.9503 9.0355 57.7673 8.69526 58.5024 8.15339C58.6873 8.01687 58.8511 7.85305 58.9729 7.65772C59.0506 7.53381 59.0695 7.39939 58.9687 7.27337C58.87 7.14946 58.744 7.13476 58.5969 7.17256C58.3638 7.23137 58.2021 7.38679 58.0551 7.59261C57.9774 6.93943 58.3848 6.24004 58.9813 5.9586C59.3089 5.80528 59.6576 5.74648 60.0104 5.70237C60.9388 5.58896 61.7495 5.22981 62.4362 4.59343C62.4677 4.56612 62.493 4.52202 62.5665 4.55142C62.432 5.1521 62.1401 5.67297 61.7579 6.14973C61.405 6.58869 60.9934 6.97093 60.5838 7.35738C59.5148 8.36341 58.7041 9.54587 58.2126 10.932C57.9879 11.5684 57.8871 12.2405 57.7358 12.8979C57.7295 12.9126 57.719 12.9336 57.7085 12.9609Z" fill="#FFBD00"/>
<path d="M43.1279 15.7417C42.9662 14.9919 42.8549 14.2589 42.5881 13.5596C42.7603 13.3978 42.9662 13.3264 43.1678 13.2466C44.0268 12.9106 44.9257 12.7278 45.8309 12.5829C46.9525 12.4023 48.0803 12.2805 49.2187 12.3036C50.2604 12.3246 51.3042 12.2595 52.346 12.3561C53.7637 12.4863 55.1687 12.6774 56.5318 13.1101C56.8574 13.213 57.1808 13.3285 57.4937 13.5427C57.248 14.2484 57.1073 14.9751 56.9708 15.6955C56.9393 15.706 56.9141 15.7249 56.9015 15.7186C55.9962 15.2482 55.007 15.0486 54.0199 14.8449C53.1378 14.6622 52.2536 14.5278 51.3588 14.5068C50.8317 14.4942 50.3045 14.5236 49.7773 14.5215C49.1809 14.5194 48.5865 14.4858 47.9921 14.5509C46.5996 14.7021 45.2282 14.9625 43.8966 15.4057C43.6467 15.4855 43.4135 15.6136 43.1279 15.7417Z" fill="#FFBD00"/>
<path d="M54.8271 8.33978C55.2219 8.14025 55.5601 7.90502 55.8268 7.58368C56.0578 7.30644 56.2426 7.0061 56.2468 6.63016C56.2489 6.48104 56.2069 6.35292 56.0536 6.30041C55.9045 6.25001 55.7848 6.29411 55.7071 6.43903C55.6987 6.45583 55.6714 6.46423 55.6525 6.47474C55.558 6.2017 55.5769 6.05048 55.726 5.82575C55.8478 5.64093 56.02 5.50861 56.1964 5.37839C56.5892 5.08856 56.9315 4.76301 56.9504 4.21484C57.2739 4.74201 57.4251 5.30068 57.3684 5.90976C57.3411 6.1849 57.255 6.44533 57.171 6.70787C57.0554 7.06701 56.9525 7.42826 57.047 7.81681C57.0995 8.03524 57.2193 8.21166 57.3285 8.39858C56.5577 8.91945 55.2975 8.90265 54.8271 8.33978Z" fill="#FFBD00"/>
<path d="M45.2559 8.35136C45.1488 8.54249 44.9891 8.6307 44.8127 8.6832C44.0902 8.90163 43.4202 8.71261 42.7229 8.42487C43.2039 7.84099 43.1157 7.24032 42.8931 6.63754C42.6011 5.84994 42.6662 5.08964 43.0338 4.34404C43.0527 4.30624 43.0779 4.27053 43.1304 4.18652C43.1913 4.82501 43.5925 5.16945 44.0377 5.49079C44.4431 5.78273 44.546 6.06207 44.462 6.47792C44.4515 6.48002 44.4326 6.48632 44.4284 6.48002C44.3171 6.3393 44.1994 6.21959 43.9978 6.312C43.8571 6.37711 43.7962 6.57033 43.8487 6.79926C43.9663 7.32013 44.3045 7.68978 44.7077 8.00482C44.8715 8.12873 45.0563 8.22534 45.2559 8.35136Z" fill="#FFBD00"/>
<path d="M171.081 40.0897V16.0381H175.691V28.8022L181.089 22.6662H186.766L180.81 29.0319L187.192 40.0897H182.221L177.841 32.2639L175.691 34.5116V40.0897H171.081Z" fill="white"/>
<path d="M169.265 27.8178L164.721 28.6381C164.568 27.7303 164.218 27.0467 163.671 26.5873C163.135 26.1279 162.435 25.8983 161.571 25.8983C160.422 25.8983 159.503 26.2975 158.814 27.0959C158.136 27.8834 157.797 29.2069 157.797 31.0662C157.797 33.1334 158.142 34.5936 158.831 35.4467C159.531 36.2998 160.466 36.7264 161.636 36.7264C162.511 36.7264 163.228 36.4803 163.785 35.9881C164.343 35.485 164.737 34.6264 164.967 33.4123L169.495 34.1834C169.025 36.2616 168.122 37.8311 166.788 38.892C165.453 39.953 163.665 40.4834 161.423 40.4834C158.875 40.4834 156.84 39.6795 155.32 38.0717C153.81 36.4639 153.056 34.2381 153.056 31.3944C153.056 28.5178 153.816 26.2811 155.336 24.6842C156.857 23.0764 158.913 22.2725 161.505 22.2725C163.627 22.2725 165.311 22.7318 166.558 23.6506C167.816 24.5584 168.718 25.9475 169.265 27.8178Z" fill="white"/>
<path d="M140.348 27.9819L136.164 27.2272C136.635 25.5428 137.444 24.2959 138.592 23.4865C139.741 22.6771 141.447 22.2725 143.711 22.2725C145.767 22.2725 147.299 22.5186 148.305 23.0107C149.311 23.492 150.017 24.11 150.421 24.8647C150.837 25.6084 151.045 26.9811 151.045 28.9826L150.996 34.3639C150.996 35.8952 151.067 37.0272 151.209 37.76C151.362 38.4819 151.641 39.2584 152.046 40.0897H147.485C147.364 39.7834 147.217 39.3295 147.042 38.728C146.965 38.4545 146.91 38.2741 146.878 38.1866C146.09 38.9522 145.248 39.5264 144.351 39.9092C143.454 40.292 142.497 40.4834 141.48 40.4834C139.686 40.4834 138.27 39.9967 137.231 39.0233C136.202 38.0498 135.688 36.8194 135.688 35.3319C135.688 34.3475 135.924 33.4725 136.394 32.7069C136.864 31.9303 137.52 31.3397 138.363 30.935C139.216 30.5194 140.441 30.1584 142.038 29.8522C144.192 29.4475 145.685 29.0701 146.517 28.7201V28.2608C146.517 27.3748 146.298 26.7459 145.86 26.374C145.423 25.9912 144.597 25.7998 143.383 25.7998C142.563 25.7998 141.923 25.9639 141.463 26.292C141.004 26.6092 140.632 27.1725 140.348 27.9819ZM146.517 31.7225C145.926 31.9194 144.991 32.1545 143.711 32.428C142.431 32.7014 141.595 32.9694 141.201 33.2319C140.599 33.6584 140.299 34.1998 140.299 34.8561C140.299 35.5014 140.539 36.0592 141.02 36.5295C141.502 36.9998 142.114 37.235 142.858 37.235C143.689 37.235 144.482 36.9616 145.237 36.4147C145.795 35.9991 146.161 35.4905 146.336 34.8889C146.456 34.4951 146.517 33.7459 146.517 32.6412V31.7225Z" fill="white"/>
<path d="M115.827 40.0897V16.0381H120.437V24.7006C121.859 23.0819 123.543 22.2725 125.49 22.2725C127.612 22.2725 129.368 23.0436 130.757 24.5858C132.146 26.117 132.84 28.3209 132.84 31.1975C132.84 34.1725 132.129 36.4639 130.707 38.0717C129.296 39.6796 127.579 40.4835 125.556 40.4835C124.561 40.4835 123.576 40.2374 122.603 39.7452C121.64 39.2421 120.809 38.5038 120.109 37.5303V40.0897H115.827ZM120.404 31.0006C120.404 32.8053 120.689 34.1397 121.257 35.0038C122.056 36.2288 123.117 36.8413 124.44 36.8413C125.457 36.8413 126.321 36.4092 127.032 35.5452C127.754 34.6702 128.115 33.2975 128.115 31.4272C128.115 29.4366 127.754 28.0037 127.032 27.1287C126.311 26.2428 125.386 25.7998 124.26 25.7998C123.155 25.7998 122.236 26.2319 121.503 27.0959C120.771 27.9491 120.404 29.2506 120.404 31.0006Z" fill="white"/>
<path d="M101.606 16.0381V24.8811C103.093 23.142 104.87 22.2725 106.938 22.2725C107.999 22.2725 108.956 22.4694 109.809 22.8631C110.662 23.2569 111.302 23.76 111.728 24.3725C112.166 24.985 112.461 25.6631 112.614 26.4069C112.778 27.1506 112.86 28.3045 112.86 29.8686V40.0897H108.25V30.8858C108.25 29.0592 108.163 27.8998 107.988 27.4076C107.813 26.9155 107.501 26.5272 107.053 26.2428C106.615 25.9475 106.063 25.7998 105.395 25.7998C104.63 25.7998 103.946 25.9858 103.345 26.3576C102.743 26.7295 102.3 27.2928 102.016 28.0475C101.742 28.7912 101.606 29.8959 101.606 31.3616V40.0897H96.9955V16.0381H101.606Z" fill="white"/>
<path d="M78.216 35.1186L82.8426 34.4131C83.0395 35.31 83.4387 35.9936 84.0403 36.4639C84.6418 36.9233 85.484 37.153 86.5668 37.153C87.759 37.153 88.6559 36.9342 89.2575 36.4967C89.6621 36.1905 89.8645 35.7803 89.8645 35.2662C89.8645 34.9162 89.7551 34.6264 89.5364 34.3967C89.3067 34.178 88.7926 33.9756 87.9942 33.7897C84.2754 32.9694 81.9184 32.2201 80.9231 31.542C79.5449 30.6014 78.8559 29.2944 78.8559 27.6209C78.8559 26.1115 79.452 24.8428 80.6442 23.8147C81.8363 22.7865 83.6848 22.2725 86.1895 22.2725C88.5739 22.2725 90.3457 22.6607 91.5051 23.4373C92.6645 24.2139 93.4629 25.3623 93.9004 26.8826L89.5528 27.6865C89.3668 27.0084 89.0114 26.4889 88.4864 26.1279C87.9723 25.767 87.234 25.5865 86.2715 25.5865C85.0574 25.5865 84.1879 25.7561 83.6629 26.0951C83.3129 26.3358 83.1379 26.6475 83.1379 27.0303C83.1379 27.3584 83.291 27.6373 83.5973 27.867C84.0129 28.1733 85.4457 28.6053 87.8957 29.1631C90.3567 29.7209 92.0739 30.4045 93.0473 31.2139C94.0098 32.0342 94.4911 33.1772 94.4911 34.6428C94.4911 36.2397 93.8239 37.6123 92.4895 38.7608C91.1551 39.9092 89.1809 40.4834 86.5668 40.4834C84.1934 40.4834 82.3121 40.0022 80.9231 39.0397C79.5449 38.0772 78.6426 36.7702 78.216 35.1186Z" fill="white"/>
<path d="M66.1141 27.9819L61.9305 27.2272C62.4008 25.5428 63.2102 24.2959 64.3586 23.4865C65.5071 22.6771 67.2133 22.2725 69.4774 22.2725C71.5337 22.2725 73.0649 22.5186 74.0712 23.0107C75.0774 23.492 75.7829 24.11 76.1876 24.8647C76.6032 25.6084 76.811 26.9811 76.811 28.9826L76.7618 34.3639C76.7618 35.8952 76.8329 37.0272 76.9751 37.76C77.1282 38.4819 77.4071 39.2584 77.8118 40.0897H73.2509C73.1305 39.7834 72.9829 39.3295 72.8079 38.728C72.7313 38.4545 72.6766 38.2741 72.6438 38.1866C71.8563 38.9522 71.0141 39.5264 70.1173 39.9092C69.2204 40.292 68.2633 40.4834 67.2461 40.4834C65.4524 40.4834 64.036 39.9967 62.9969 39.0233C61.9688 38.0498 61.4547 36.8194 61.4547 35.3319C61.4547 34.3475 61.6899 33.4725 62.1602 32.7069C62.6305 31.9303 63.2868 31.3397 64.129 30.935C64.9821 30.5194 66.2071 30.1584 67.804 29.8522C69.9587 29.4475 71.4516 29.0701 72.2829 28.7201V28.2608C72.2829 27.3748 72.0641 26.7459 71.6266 26.374C71.1891 25.9912 70.3633 25.7998 69.1493 25.7998C68.329 25.7998 67.6891 25.9639 67.2297 26.292C66.7704 26.6092 66.3985 27.1725 66.1141 27.9819ZM72.2829 31.7225C71.6923 31.9194 70.7571 32.1545 69.4774 32.428C68.1977 32.7014 67.361 32.9694 66.9672 33.2319C66.3657 33.6584 66.0649 34.1998 66.0649 34.8561C66.0649 35.5014 66.3055 36.0592 66.7868 36.5295C67.268 36.9998 67.8805 37.235 68.6243 37.235C69.4555 37.235 70.2485 36.9616 71.0032 36.4147C71.561 35.9991 71.9274 35.4905 72.1024 34.8889C72.2227 34.4951 72.2829 33.7459 72.2829 32.6412V31.7225Z" fill="white"/>
<path d="M55.3392 31.2467L60.0478 32.7397C59.326 35.3647 58.1228 37.317 56.4385 38.5967C54.765 39.8655 52.6377 40.4999 50.0564 40.4999C46.8627 40.4999 44.2376 39.4116 42.1814 37.235C40.1251 35.0475 39.097 32.0616 39.097 28.2772C39.097 24.274 40.1306 21.1678 42.1978 18.9584C44.265 16.7381 46.983 15.6279 50.3517 15.6279C53.2939 15.6279 55.6838 16.4975 57.5213 18.2365C58.615 19.2647 59.4353 20.7412 59.9822 22.6662L55.1752 23.8147C54.8908 22.5678 54.2947 21.5834 53.3869 20.8615C52.49 20.1397 51.3963 19.7787 50.1056 19.7787C48.3228 19.7787 46.8736 20.4186 45.758 21.6983C44.6533 22.9779 44.1009 25.0506 44.1009 27.9162C44.1009 30.9569 44.6478 33.1225 45.7416 34.4131C46.8353 35.7038 48.2572 36.3491 50.0072 36.3491C51.2978 36.3491 52.408 35.9389 53.3377 35.1186C54.2674 34.2983 54.9346 33.0077 55.3392 31.2467Z" fill="white"/>
<path d="M30.9062 40.0897H26.296V22.6662H30.5781V25.1436C31.3109 23.9732 31.9671 23.2022 32.5468 22.8303C33.1374 22.4584 33.8046 22.2725 34.5484 22.2725C35.5984 22.2725 36.6101 22.5623 37.5836 23.142L36.1562 27.1615C35.3796 26.6584 34.6578 26.4068 33.9906 26.4068C33.3453 26.4068 32.7984 26.5873 32.3499 26.9483C31.9015 27.2983 31.546 27.9381 31.2835 28.8678C31.032 29.7975 30.9062 31.7444 30.9062 34.7084V40.0897Z" fill="white"/>
<path d="M0 40.0897V16.0381H7.26799L11.6321 32.4444L15.9469 16.0381H23.2313V40.0897H18.7196V21.1568L13.9454 40.0897H9.26956L4.51173 21.1568V40.0897H0Z" fill="white"/>
</svg>
